<svg viewBox="0 -20 300 140" xmlns="http://www.w3.org/2000/svg">
<g transform="scale(1, 1)">
<g fill="CornflowerBlue">
<rect height="50" width="50" x="50" y="50"/>
<text fill="Black" font-family="Arial" font-size="5" x="51" y="98">
0x000000
</text>
<text fill="Black" font-family="Arial" font-size="5" x="51" y="55">
0x001000
</text>
</g>
<g fill="CornflowerBlue">
<rect height="50" width="50" x="50" y="0"/>
<text fill="Black" font-family="Arial" font-size="5" x="51" y="48">
0x001000
</text>
<text fill="Black" font-family="Arial" font-size="5" x="51" y="5">
0x002000
</text>
</g>
<g fill="Crimson">
<rect height="12.5" width="50" x="100" y="87.5"/>
<text fill="Black" font-family="Arial" font-size="5" x="101" y="98">
0x000000
</text>
<text fill="Black" font-family="Arial" font-size="5" x="101" y="92.5">
0x000400
</text>
</g>
<g fill="Crimson">
<rect height="12.5" width="50" x="100" y="75"/>
<text fill="Black" font-family="Arial" font-size="5" x="101" y="85.5">
0x000400
</text>
<text fill="Black" font-family="Arial" font-size="5" x="101" y="80">
0x000800
</text>
</g>
<g fill="Crimson">
<rect height="12.5" width="50" x="100" y="62.5"/>
<text fill="Black" font-family="Arial" font-size="5" x="101" y="73">
0x000800
</text>
<text fill="Black" font-family="Arial" font-size="5" x="101" y="67.5">
0x000C00
</text>
</g>
<g fill="Crimson">
<rect height="12.5" width="50" x="100" y="50"/>
<text fill="Black" font-family="Arial" font-size="5" x="101" y="60.5">
0x000C00
</text>
<text fill="Black" font-family="Arial" font-size="5" x="101" y="55">
0x001000
</text>
</g>
<g fill="Crimson">
<rect height="12.5" width="50" x="100" y="37.5"/>
<text fill="Black" font-family="Arial" font-size="5" x="101" y="48">
0x001000
</text>
<text fill="Black" font-family="Arial" font-size="5" x="101" y="42.5">
0x001400
</text>
</g>
<g fill="MediumSeaGreen">
<rect height="61.328125" width="50" x="150" y="38.671875"/>
<text fill="Black" font-family="Arial" font-size="5" x="151" y="98">
0x000000
</text>
<text fill="Black" font-family="Arial" font-size="5" x="151" y="43.671875">
0x0013A0
</text>
</g>
<g fill="SandyBrown">
<rect height="1.171875" width="50" x="150" y="37.5"/>
<text fill="Black" font-family="Arial" font-size="5" x="151" y="36.671875">
0x0013A0
</text>
<text fill="Black" font-family="Arial" font-size="5" x="151" y="42.5">
0x001400
</text>
</g>
</g>
</svg>