<svg viewBox="0 -20 300 140" xmlns="http://www.w3.org/2000/svg">
<g transform="scale(1, 1)">
<g fill="CornflowerBlue">
<rect height="25" width="50" x="50" y="75"/>
<text fill="Black" font-family="Arial" font-size="5" x="51" y="98">
0x000000
</text>
<text fill="Black" font-family="Arial" font-size="5" x="51" y="80">
0x001000
</text>
</g>
<g fill="CornflowerBlue">
<rect height="25" width="50" x="50" y="50"/>
<text fill="Black" font-family="Arial" font-size="5" x="51" y="73">
0x001000
</text>
<text fill="Black" font-family="Arial" font-size="5" x="51" y="55">
0x002000
</text>
</g>
<g fill="CornflowerBlue">
<rect height="25" width="50" x="50" y="25"/>
<text fill="Black" font-family="Arial" font-size="5" x="51" y="48">
0x002000
</text>
<text fill="Black" font-family="Arial" font-size="5" x="51" y="30">
0x003000
</text>
</g>
<g fill="CornflowerBlue">
<rect height="25" width="50" x="50" y="0"/>
<text fill="Black" font-family="Arial" font-size="5" x="51" y="23">
0x003000
</text>
<text fill="Black" font-family="Arial" font-size="5" x="51" y="5">
0x004000
</text>
</g>
<g fill="Crimson">
<rect height="6.25" width="50" x="100" y="93.75"/>
<text fill="Black" font-family="Arial" font-size="5" x="101" y="98">
0x000000
</text>
<text fill="Black" font-family="Arial" font-size="5" x="101" y="98.75">
0x000400
</text>
</g>
<g fill="Crimson">
<rect height="6.25" width="50" x="100" y="87.5"/>
<text fill="Black" font-family="Arial" font-size="5" x="101" y="91.75">
0x000400
</text>
<text fill="Black" font-family="Arial" font-size="5" x="101" y="92.5">
0x000800
</text>
</g>
<g fill="Crimson">
<rect height="6.25" width="50" x="100" y="81.25"/>
<text fill="Black" font-family="Arial" font-size="5" x="101" y="85.5">
0x000800
</text>
<text fill="Black" font-family="Arial" font-size="5" x="101" y="86.25">
0x000C00
</text>
</g>
<g fill="Crimson">
<rect height="6.25" width="50" x="100" y="75"/>
<text fill="Black" font-family="Arial" font-size="5" x="101" y="79.25">
0x000C00
</text>
<text fill="Black" font-family="Arial" font-size="5" x="101" y="80">
0x001000
</text>
</g>
<g fill="Crimson">
<rect height="6.25" width="50" x="100" y="68.75"/>
<text fill="Black" font-family="Arial" font-size="5" x="101" y="73">
0x001000
</text>
<text fill="Black" font-family="Arial" font-size="5" x="101" y="73.75">
0x001400
</text>
</g>
<g fill="Crimson">
<rect height="6.25" width="50" x="100" y="50"/>
<text fill="Black" font-family="Arial" font-size="5" x="101" y="54.25">
0x001C00
</text>
<text fill="Black" font-family="Arial" font-size="5" x="101" y="55">
0x002000
</text>
</g>
<g fill="Crimson">
<rect height="6.25" width="50" x="100" y="62.5"/>
<text fill="Black" font-family="Arial" font-size="5" x="101" y="66.75">
0x001400
</text>
<text fill="Black" font-family="Arial" font-size="5" x="101" y="67.5">
0x001800
</text>
</g>
<g fill="Crimson">
<rect height="6.25" width="50" x="100" y="56.25"/>
<text fill="Black" font-family="Arial" font-size="5" x="101" y="60.5">
0x001800
</text>
<text fill="Black" font-family="Arial" font-size="5" x="101" y="61.25">
0x001C00
</text>
</g>
<g fill="Crimson">
<rect height="6.25" width="50" x="100" y="43.75"/>
<text fill="Black" font-family="Arial" font-size="5" x="101" y="48">
0x002000
</text>
<text fill="Black" font-family="Arial" font-size="5" x="101" y="48.75">
0x002400
</text>
</g>
<g fill="Crimson">
<rect height="6.25" width="50" x="100" y="37.5"/>
<text fill="Black" font-family="Arial" font-size="5" x="101" y="41.75">
0x002400
</text>
<text fill="Black" font-family="Arial" font-size="5" x="101" y="42.5">
0x002800
</text>
</g>
<g fill="Crimson">
<rect height="6.25" width="50" x="100" y="31.25"/>
<text fill="Black" font-family="Arial" font-size="5" x="101" y="35.5">
0x002800
</text>
<text fill="Black" font-family="Arial" font-size="5" x="101" y="36.25">
0x002C00
</text>
</g>
<g fill="Crimson">
<rect height="6.25" width="50" x="100" y="25"/>
<text fill="Black" font-family="Arial" font-size="5" x="101" y="29.25">
0x002C00
</text>
<text fill="Black" font-family="Arial" font-size="5" x="101" y="30">
0x003000
</text>
</g>
<g fill="Crimson">
<rect height="6.25" width="50" x="100" y="18.75"/>
<text fill="Black" font-family="Arial" font-size="5" x="101" y="23">
0x003000
</text>
<text fill="Black" font-family="Arial" font-size="5" x="101" y="23.75">
0x003400
</text>
</g>
<g fill="Crimson">
<rect height="6.25" width="50" x="100" y="12.5"/>
<text fill="Black" font-family="Arial" font-size="5" x="101" y="16.75">
0x003400
</text>
<text fill="Black" font-family="Arial" font-size="5" x="101" y="17.5">
0x003800
</text>
</g>
<g fill="Crimson">
<rect height="6.25" width="50" x="100" y="6.25"/>
<text fill="Black" font-family="Arial" font-size="5" x="101" y="10.5">
0x003800
</text>
<text fill="Black" font-family="Arial" font-size="5" x="101" y="11.25">
0x003C00
</text>
</g>
<g fill="Crimson">
<rect height="6.25" width="50" x="100" y="0"/>
<text fill="Black" font-family="Arial" font-size="5" x="101" y="4.25">
0x003C00
</text>
<text fill="Black" font-family="Arial" font-size="5" x="101" y="5">
0x004000
</text>
</g>
<g fill="MediumSeaGreen">
<rect height="30.664063" width="50" x="150" y="69.33594"/>
<text fill="Black" font-family="Arial" font-size="5" x="151" y="98">
0x000000
</text>
<text fill="Black" font-family="Arial" font-size="5" x="151" y="74.33594">
0x0013A0
</text>
</g>
<g fill="MediumSeaGreen">
<rect height="30.664063" width="50" x="150" y="21.362305"/>
<text fill="Black" font-family="Arial" font-size="5" x="151" y="50.026367">
0x001EB4
</text>
<text fill="Black" font-family="Arial" font-size="5" x="151" y="26.362305">
0x003254
</text>
</g>
<g fill="SandyBrown">
<rect height="0.5859375" width="50" x="150" y="68.75"/>
<text fill="Black" font-family="Arial" font-size="5" x="151" y="67.33594">
0x0013A0
</text>
<text fill="Black" font-family="Arial" font-size="5" x="151" y="73.75">
0x001400
</text>
</g>
<g fill="SandyBrown">
<rect height="4.223633" width="50" x="150" y="52.026367"/>
<text fill="Black" font-family="Arial" font-size="5" x="151" y="54.25">
0x001C00
</text>
<text fill="Black" font-family="Arial" font-size="5" x="151" y="57.026367">
0x001EB4
</text>
</g>
<g fill="SandyBrown">
<rect height="6.25" width="50" x="150" y="62.5"/>
<text fill="Black" font-family="Arial" font-size="5" x="151" y="66.75">
0x001400
</text>
<text fill="Black" font-family="Arial" font-size="5" x="151" y="67.5">
0x001800
</text>
</g>
<g fill="SandyBrown">
<rect height="6.25" width="50" x="150" y="56.25"/>
<text fill="Black" font-family="Arial" font-size="5" x="151" y="60.5">
0x001800
</text>
<text fill="Black" font-family="Arial" font-size="5" x="151" y="61.25">
0x001C00
</text>
</g>
<g fill="SandyBrown">
<rect height="2.6123047" width="50" x="150" y="18.75"/>
<text fill="Black" font-family="Arial" font-size="5" x="151" y="19.362305">
0x003254
</text>
<text fill="Black" font-family="Arial" font-size="5" x="151" y="23.75">
0x003400
</text>
</g>
<g fill="SandyBrown">
<rect height="6.25" width="50" x="150" y="12.5"/>
<text fill="Black" font-family="Arial" font-size="5" x="151" y="16.75">
0x003400
</text>
<text fill="Black" font-family="Arial" font-size="5" x="151" y="17.5">
0x003800
</text>
</g>
<g fill="SandyBrown">
<rect height="6.25" width="50" x="150" y="6.25"/>
<text fill="Black" font-family="Arial" font-size="5" x="151" y="10.5">
0x003800
</text>
<text fill="Black" font-family="Arial" font-size="5" x="151" y="11.25">
0x003C00
</text>
</g>
<g fill="SandyBrown">
<rect height="6.25" width="50" x="150" y="0"/>
<text fill="Black" font-family="Arial" font-size="5" x="151" y="4.25">
0x003C00
</text>
<text fill="Black" font-family="Arial" font-size="5" x="151" y="5">
0x004000
</text>
</g>
</g>
</svg>