<svg viewBox="0 -20 300 140" xmlns="http://www.w3.org/2000/svg">
<g transform="scale(1, 1)">
<g fill="CornflowerBlue">
<rect height="0.9615385" width="50" x="50" y="99.03846"/>
<text fill="Black" font-family="Arial" font-size="5" x="51" y="98">
0x000000
</text>
<text fill="Black" font-family="Arial" font-size="5" x="51" y="104.03846">
0x000080
</text>
</g>
<g fill="CornflowerBlue">
<rect height="0.9615385" width="50" x="50" y="98.07692"/>
<text fill="Black" font-family="Arial" font-size="5" x="51" y="97.03846">
0x000080
</text>
<text fill="Black" font-family="Arial" font-size="5" x="51" y="103.07692">
0x000100
</text>
</g>
<g fill="CornflowerBlue">
<rect height="0.9615385" width="50" x="50" y="97.11538"/>
<text fill="Black" font-family="Arial" font-size="5" x="51" y="96.07692">
0x000100
</text>
<text fill="Black" font-family="Arial" font-size="5" x="51" y="102.11538">
0x000180
</text>
</g>
<g fill="CornflowerBlue">
<rect height="0.9615385" width="50" x="50" y="96.15385"/>
<text fill="Black" font-family="Arial" font-size="5" x="51" y="95.11539">
0x000180
</text>
<text fill="Black" font-family="Arial" font-size="5" x="51" y="101.15385">
0x000200
</text>
</g>
<g fill="CornflowerBlue">
<rect height="0.9615385" width="50" x="50" y="95.19231"/>
<text fill="Black" font-family="Arial" font-size="5" x="51" y="94.15385">
0x000200
</text>
<text fill="Black" font-family="Arial" font-size="5" x="51" y="100.19231">
0x000280
</text>
</g>
<g fill="CornflowerBlue">
<rect height="0.9615385" width="50" x="50" y="94.23077"/>
<text fill="Black" font-family="Arial" font-size="5" x="51" y="93.19231">
0x000280
</text>
<text fill="Black" font-family="Arial" font-size="5" x="51" y="99.23077">
0x000300
</text>
</g>
<g fill="CornflowerBlue">
<rect height="0.9615385" width="50" x="50" y="93.269226"/>
<text fill="Black" font-family="Arial" font-size="5" x="51" y="92.23077">
0x000300
</text>
<text fill="Black" font-family="Arial" font-size="5" x="51" y="98.269226">
0x000380
</text>
</g>
<g fill="CornflowerBlue">
<rect height="0.9615385" width="50" x="50" y="92.30769"/>
<text fill="Black" font-family="Arial" font-size="5" x="51" y="91.26923">
0x000380
</text>
<text fill="Black" font-family="Arial" font-size="5" x="51" y="97.30769">
0x000400
</text>
</g>
<g fill="CornflowerBlue">
<rect height="0.9615385" width="50" x="50" y="91.34615"/>
<text fill="Black" font-family="Arial" font-size="5" x="51" y="90.30769">
0x000400
</text>
<text fill="Black" font-family="Arial" font-size="5" x="51" y="96.34615">
0x000480
</text>
</g>
<g fill="CornflowerBlue">
<rect height="0.9615385" width="50" x="50" y="90.38461"/>
<text fill="Black" font-family="Arial" font-size="5" x="51" y="89.34615">
0x000480
</text>
<text fill="Black" font-family="Arial" font-size="5" x="51" y="95.38461">
0x000500
</text>
</g>
<g fill="CornflowerBlue">
<rect height="0.9615385" width="50" x="50" y="89.42307"/>
<text fill="Black" font-family="Arial" font-size="5" x="51" y="88.38461">
0x000500
</text>
<text fill="Black" font-family="Arial" font-size="5" x="51" y="94.42307">
0x000580
</text>
</g>
<g fill="CornflowerBlue">
<rect height="0.9615385" width="50" x="50" y="88.46154"/>
<text fill="Black" font-family="Arial" font-size="5" x="51" y="87.42308">
0x000580
</text>
<text fill="Black" font-family="Arial" font-size="5" x="51" y="93.46154">
0x000600
</text>
</g>
<g fill="CornflowerBlue">
<rect height="0.9615385" width="50" x="50" y="87.5"/>
<text fill="Black" font-family="Arial" font-size="5" x="51" y="86.46154">
0x000600
</text>
<text fill="Black" font-family="Arial" font-size="5" x="51" y="92.5">
0x000680
</text>
</g>
<g fill="CornflowerBlue">
<rect height="0.9615385" width="50" x="50" y="86.53846"/>
<text fill="Black" font-family="Arial" font-size="5" x="51" y="85.5">
0x000680
</text>
<text fill="Black" font-family="Arial" font-size="5" x="51" y="91.53846">
0x000700
</text>
</g>
<g fill="CornflowerBlue">
<rect height="0.9615385" width="50" x="50" y="85.57692"/>
<text fill="Black" font-family="Arial" font-size="5" x="51" y="84.53846">
0x000700
</text>
<text fill="Black" font-family="Arial" font-size="5" x="51" y="90.57692">
0x000780
</text>
</g>
<g fill="CornflowerBlue">
<rect height="0.9615385" width="50" x="50" y="84.61538"/>
<text fill="Black" font-family="Arial" font-size="5" x="51" y="83.57692">
0x000780
</text>
<text fill="Black" font-family="Arial" font-size="5" x="51" y="89.61538">
0x000800
</text>
</g>
<g fill="CornflowerBlue">
<rect height="0.9615385" width="50" x="50" y="83.65385"/>
<text fill="Black" font-family="Arial" font-size="5" x="51" y="82.61539">
0x000800
</text>
<text fill="Black" font-family="Arial" font-size="5" x="51" y="88.65385">
0x000880
</text>
</g>
<g fill="CornflowerBlue">
<rect height="0.9615385" width="50" x="50" y="82.69231"/>
<text fill="Black" font-family="Arial" font-size="5" x="51" y="81.65385">
0x000880
</text>
<text fill="Black" font-family="Arial" font-size="5" x="51" y="87.69231">
0x000900
</text>
</g>
<g fill="CornflowerBlue">
<rect height="0.9615385" width="50" x="50" y="81.73077"/>
<text fill="Black" font-family="Arial" font-size="5" x="51" y="80.69231">
0x000900
</text>
<text fill="Black" font-family="Arial" font-size="5" x="51" y="86.73077">
0x000980
</text>
</g>
<g fill="CornflowerBlue">
<rect height="0.9615385" width="50" x="50" y="80.76923"/>
<text fill="Black" font-family="Arial" font-size="5" x="51" y="79.730774">
0x000980
</text>
<text fill="Black" font-family="Arial" font-size="5" x="51" y="85.76923">
0x000A00
</text>
</g>
<g fill="CornflowerBlue">
<rect height="0.9615385" width="50" x="50" y="79.807686"/>
<text fill="Black" font-family="Arial" font-size="5" x="51" y="78.769226">
0x000A00
</text>
<text fill="Black" font-family="Arial" font-size="5" x="51" y="84.807686">
0x000A80
</text>
</g>
<g fill="CornflowerBlue">
<rect height="0.9615385" width="50" x="50" y="78.84615"/>
<text fill="Black" font-family="Arial" font-size="5" x="51" y="77.80769">
0x000A80
</text>
<text fill="Black" font-family="Arial" font-size="5" x="51" y="83.84615">
0x000B00
</text>
</g>
<g fill="CornflowerBlue">
<rect height="0.9615385" width="50" x="50" y="77.88461"/>
<text fill="Black" font-family="Arial" font-size="5" x="51" y="76.84615">
0x000B00
</text>
<text fill="Black" font-family="Arial" font-size="5" x="51" y="82.88461">
0x000B80
</text>
</g>
<g fill="CornflowerBlue">
<rect height="0.9615385" width="50" x="50" y="76.92307"/>
<text fill="Black" font-family="Arial" font-size="5" x="51" y="75.88461">
0x000B80
</text>
<text fill="Black" font-family="Arial" font-size="5" x="51" y="81.92307">
0x000C00
</text>
</g>
<g fill="CornflowerBlue">
<rect height="0.9615385" width="50" x="50" y="75.96154"/>
<text fill="Black" font-family="Arial" font-size="5" x="51" y="74.92308">
0x000C00
</text>
<text fill="Black" font-family="Arial" font-size="5" x="51" y="80.96154">
0x000C80
</text>
</g>
<g fill="CornflowerBlue">
<rect height="0.9615385" width="50" x="50" y="75"/>
<text fill="Black" font-family="Arial" font-size="5" x="51" y="73.96154">
0x000C80
</text>
<text fill="Black" font-family="Arial" font-size="5" x="51" y="80">
0x000D00
</text>
</g>
<g fill="CornflowerBlue">
<rect height="0.9615385" width="50" x="50" y="74.03846"/>
<text fill="Black" font-family="Arial" font-size="5" x="51" y="73">
0x000D00
</text>
<text fill="Black" font-family="Arial" font-size="5" x="51" y="79.03846">
0x000D80
</text>
</g>
<g fill="CornflowerBlue">
<rect height="0.9615385" width="50" x="50" y="73.07692"/>
<text fill="Black" font-family="Arial" font-size="5" x="51" y="72.03846">
0x000D80
</text>
<text fill="Black" font-family="Arial" font-size="5" x="51" y="78.07692">
0x000E00
</text>
</g>
<g fill="CornflowerBlue">
<rect height="0.9615385" width="50" x="50" y="72.11538"/>
<text fill="Black" font-family="Arial" font-size="5" x="51" y="71.07692">
0x000E00
</text>
<text fill="Black" font-family="Arial" font-size="5" x="51" y="77.11538">
0x000E80
</text>
</g>
<g fill="CornflowerBlue">
<rect height="0.9615385" width="50" x="50" y="71.15385"/>
<text fill="Black" font-family="Arial" font-size="5" x="51" y="70.11539">
0x000E80
</text>
<text fill="Black" font-family="Arial" font-size="5" x="51" y="76.15385">
0x000F00
</text>
</g>
<g fill="CornflowerBlue">
<rect height="0.9615385" width="50" x="50" y="70.19231"/>
<text fill="Black" font-family="Arial" font-size="5" x="51" y="69.15385">
0x000F00
</text>
<text fill="Black" font-family="Arial" font-size="5" x="51" y="75.19231">
0x000F80
</text>
</g>
<g fill="CornflowerBlue">
<rect height="0.9615385" width="50" x="50" y="69.23077"/>
<text fill="Black" font-family="Arial" font-size="5" x="51" y="68.19231">
0x000F80
</text>
<text fill="Black" font-family="Arial" font-size="5" x="51" y="74.23077">
0x001000
</text>
</g>
<g fill="CornflowerBlue">
<rect height="0.9615385" width="50" x="50" y="68.269226"/>
<text fill="Black" font-family="Arial" font-size="5" x="51" y="67.23077">
0x001000
</text>
<text fill="Black" font-family="Arial" font-size="5" x="51" y="73.269226">
0x001080
</text>
</g>
<g fill="CornflowerBlue">
<rect height="0.9615385" width="50" x="50" y="67.30769"/>
<text fill="Black" font-family="Arial" font-size="5" x="51" y="66.26923">
0x001080
</text>
<text fill="Black" font-family="Arial" font-size="5" x="51" y="72.30769">
0x001100
</text>
</g>
<g fill="CornflowerBlue">
<rect height="0.9615385" width="50" x="50" y="66.34615"/>
<text fill="Black" font-family="Arial" font-size="5" x="51" y="65.30769">
0x001100
</text>
<text fill="Black" font-family="Arial" font-size="5" x="51" y="71.34615">
0x001180
</text>
</g>
<g fill="CornflowerBlue">
<rect height="0.9615385" width="50" x="50" y="65.38461"/>
<text fill="Black" font-family="Arial" font-size="5" x="51" y="64.34615">
0x001180
</text>
<text fill="Black" font-family="Arial" font-size="5" x="51" y="70.38461">
0x001200
</text>
</g>
<g fill="CornflowerBlue">
<rect height="0.9615385" width="50" x="50" y="64.42307"/>
<text fill="Black" font-family="Arial" font-size="5" x="51" y="63.384613">
0x001200
</text>
<text fill="Black" font-family="Arial" font-size="5" x="51" y="69.42307">
0x001280
</text>
</g>
<g fill="CornflowerBlue">
<rect height="0.9615385" width="50" x="50" y="63.46154"/>
<text fill="Black" font-family="Arial" font-size="5" x="51" y="62.42308">
0x001280
</text>
<text fill="Black" font-family="Arial" font-size="5" x="51" y="68.46154">
0x001300
</text>
</g>
<g fill="CornflowerBlue">
<rect height="0.9615385" width="50" x="50" y="62.5"/>
<text fill="Black" font-family="Arial" font-size="5" x="51" y="61.46154">
0x001300
</text>
<text fill="Black" font-family="Arial" font-size="5" x="51" y="67.5">
0x001380
</text>
</g>
<g fill="CornflowerBlue">
<rect height="0.9615385" width="50" x="50" y="61.53846"/>
<text fill="Black" font-family="Arial" font-size="5" x="51" y="60.5">
0x001380
</text>
<text fill="Black" font-family="Arial" font-size="5" x="51" y="66.53846">
0x001400
</text>
</g>
<g fill="CornflowerBlue">
<rect height="0.9615385" width="50" x="50" y="40.384617"/>
<text fill="Black" font-family="Arial" font-size="5" x="51" y="39.346157">
0x001E80
</text>
<text fill="Black" font-family="Arial" font-size="5" x="51" y="45.384617">
0x001F00
</text>
</g>
<g fill="CornflowerBlue">
<rect height="0.9615385" width="50" x="50" y="45.192303"/>
<text fill="Black" font-family="Arial" font-size="5" x="51" y="44.153843">
0x001C00
</text>
<text fill="Black" font-family="Arial" font-size="5" x="51" y="50.192303">
0x001C80
</text>
</g>
<g fill="CornflowerBlue">
<rect height="0.9615385" width="50" x="50" y="44.230766"/>
<text fill="Black" font-family="Arial" font-size="5" x="51" y="43.192307">
0x001C80
</text>
<text fill="Black" font-family="Arial" font-size="5" x="51" y="49.230766">
0x001D00
</text>
</g>
<g fill="CornflowerBlue">
<rect height="0.9615385" width="50" x="50" y="43.26923"/>
<text fill="Black" font-family="Arial" font-size="5" x="51" y="42.23077">
0x001D00
</text>
<text fill="Black" font-family="Arial" font-size="5" x="51" y="48.26923">
0x001D80
</text>
</g>
<g fill="CornflowerBlue">
<rect height="0.9615385" width="50" x="50" y="42.30769"/>
<text fill="Black" font-family="Arial" font-size="5" x="51" y="41.26923">
0x001D80
</text>
<text fill="Black" font-family="Arial" font-size="5" x="51" y="47.30769">
0x001E00
</text>
</g>
<g fill="CornflowerBlue">
<rect height="0.9615385" width="50" x="50" y="41.346153"/>
<text fill="Black" font-family="Arial" font-size="5" x="51" y="40.307693">
0x001E00
</text>
<text fill="Black" font-family="Arial" font-size="5" x="51" y="46.346153">
0x001E80
</text>
</g>
<g fill="CornflowerBlue">
<rect height="0.9615385" width="50" x="50" y="39.423073"/>
<text fill="Black" font-family="Arial" font-size="5" x="51" y="38.384613">
0x001F00
</text>
<text fill="Black" font-family="Arial" font-size="5" x="51" y="44.423073">
0x001F80
</text>
</g>
<g fill="CornflowerBlue">
<rect height="0.9615385" width="50" x="50" y="38.461536"/>
<text fill="Black" font-family="Arial" font-size="5" x="51" y="37.423077">
0x001F80
</text>
<text fill="Black" font-family="Arial" font-size="5" x="51" y="43.461536">
0x002000
</text>
</g>
<g fill="CornflowerBlue">
<rect height="0.9615385" width="50" x="50" y="37.499996"/>
<text fill="Black" font-family="Arial" font-size="5" x="51" y="36.461536">
0x002000
</text>
<text fill="Black" font-family="Arial" font-size="5" x="51" y="42.499996">
0x002080
</text>
</g>
<g fill="CornflowerBlue">
<rect height="0.9615385" width="50" x="50" y="36.53846"/>
<text fill="Black" font-family="Arial" font-size="5" x="51" y="35.5">
0x002080
</text>
<text fill="Black" font-family="Arial" font-size="5" x="51" y="41.53846">
0x002100
</text>
</g>
<g fill="CornflowerBlue">
<rect height="0.9615385" width="50" x="50" y="35.576923"/>
<text fill="Black" font-family="Arial" font-size="5" x="51" y="34.538464">
0x002100
</text>
<text fill="Black" font-family="Arial" font-size="5" x="51" y="40.576923">
0x002180
</text>
</g>
<g fill="CornflowerBlue">
<rect height="0.9615385" width="50" x="50" y="34.61538"/>
<text fill="Black" font-family="Arial" font-size="5" x="51" y="33.57692">
0x002180
</text>
<text fill="Black" font-family="Arial" font-size="5" x="51" y="39.61538">
0x002200
</text>
</g>
<g fill="CornflowerBlue">
<rect height="0.9615385" width="50" x="50" y="33.653847"/>
<text fill="Black" font-family="Arial" font-size="5" x="51" y="32.615387">
0x002200
</text>
<text fill="Black" font-family="Arial" font-size="5" x="51" y="38.653847">
0x002280
</text>
</g>
<g fill="CornflowerBlue">
<rect height="0.9615385" width="50" x="50" y="32.692307"/>
<text fill="Black" font-family="Arial" font-size="5" x="51" y="31.653847">
0x002280
</text>
<text fill="Black" font-family="Arial" font-size="5" x="51" y="37.692307">
0x002300
</text>
</g>
<g fill="CornflowerBlue">
<rect height="0.9615385" width="50" x="50" y="31.730768"/>
<text fill="Black" font-family="Arial" font-size="5" x="51" y="30.692307">
0x002300
</text>
<text fill="Black" font-family="Arial" font-size="5" x="51" y="36.730766">
0x002380
</text>
</g>
<g fill="CornflowerBlue">
<rect height="0.9615385" width="50" x="50" y="30.769236"/>
<text fill="Black" font-family="Arial" font-size="5" x="51" y="29.730774">
0x002380
</text>
<text fill="Black" font-family="Arial" font-size="5" x="51" y="35.769234">
0x002400
</text>
</g>
<g fill="CornflowerBlue">
<rect height="0.9615385" width="50" x="50" y="29.807688"/>
<text fill="Black" font-family="Arial" font-size="5" x="51" y="28.769226">
0x002400
</text>
<text fill="Black" font-family="Arial" font-size="5" x="51" y="34.807686">
0x002480
</text>
</g>
<g fill="CornflowerBlue">
<rect height="0.9615385" width="50" x="50" y="28.846155"/>
<text fill="Black" font-family="Arial" font-size="5" x="51" y="27.807693">
0x002480
</text>
<text fill="Black" font-family="Arial" font-size="5" x="51" y="33.846153">
0x002500
</text>
</g>
<g fill="CornflowerBlue">
<rect height="0.9615385" width="50" x="50" y="27.884615"/>
<text fill="Black" font-family="Arial" font-size="5" x="51" y="26.846153">
0x002500
</text>
<text fill="Black" font-family="Arial" font-size="5" x="51" y="32.884613">
0x002580
</text>
</g>
<g fill="CornflowerBlue">
<rect height="0.9615385" width="50" x="50" y="26.923075"/>
<text fill="Black" font-family="Arial" font-size="5" x="51" y="25.884613">
0x002580
</text>
<text fill="Black" font-family="Arial" font-size="5" x="51" y="31.923075">
0x002600
</text>
</g>
<g fill="CornflowerBlue">
<rect height="0.9615385" width="50" x="50" y="25.961542"/>
<text fill="Black" font-family="Arial" font-size="5" x="51" y="24.92308">
0x002600
</text>
<text fill="Black" font-family="Arial" font-size="5" x="51" y="30.961542">
0x002680
</text>
</g>
<g fill="CornflowerBlue">
<rect height="0.9615385" width="50" x="50" y="24.999994"/>
<text fill="Black" font-family="Arial" font-size="5" x="51" y="23.961533">
0x002680
</text>
<text fill="Black" font-family="Arial" font-size="5" x="51" y="29.999994">
0x002700
</text>
</g>
<g fill="CornflowerBlue">
<rect height="0.9615385" width="50" x="50" y="24.038462"/>
<text fill="Black" font-family="Arial" font-size="5" x="51" y="23">
0x002700
</text>
<text fill="Black" font-family="Arial" font-size="5" x="51" y="29.038462">
0x002780
</text>
</g>
<g fill="CornflowerBlue">
<rect height="0.9615385" width="50" x="50" y="23.07693"/>
<text fill="Black" font-family="Arial" font-size="5" x="51" y="22.038467">
0x002780
</text>
<text fill="Black" font-family="Arial" font-size="5" x="51" y="28.07693">
0x002800
</text>
</g>
<g fill="CornflowerBlue">
<rect height="0.9615385" width="50" x="50" y="22.115381"/>
<text fill="Black" font-family="Arial" font-size="5" x="51" y="21.07692">
0x002800
</text>
<text fill="Black" font-family="Arial" font-size="5" x="51" y="27.115381">
0x002880
</text>
</g>
<g fill="CornflowerBlue">
<rect height="0.9615385" width="50" x="50" y="21.153849"/>
<text fill="Black" font-family="Arial" font-size="5" x="51" y="20.115387">
0x002880
</text>
<text fill="Black" font-family="Arial" font-size="5" x="51" y="26.153849">
0x002900
</text>
</g>
<g fill="CornflowerBlue">
<rect height="0.9615385" width="50" x="50" y="20.192308"/>
<text fill="Black" font-family="Arial" font-size="5" x="51" y="19.153847">
0x002900
</text>
<text fill="Black" font-family="Arial" font-size="5" x="51" y="25.192308">
0x002980
</text>
</g>
<g fill="CornflowerBlue">
<rect height="0.9615385" width="50" x="50" y="19.230768"/>
<text fill="Black" font-family="Arial" font-size="5" x="51" y="18.192307">
0x002980
</text>
<text fill="Black" font-family="Arial" font-size="5" x="51" y="24.230768">
0x002A00
</text>
</g>
<g fill="CornflowerBlue">
<rect height="0.9615385" width="50" x="50" y="18.269236"/>
<text fill="Black" font-family="Arial" font-size="5" x="51" y="17.230774">
0x002A00
</text>
<text fill="Black" font-family="Arial" font-size="5" x="51" y="23.269236">
0x002A80
</text>
</g>
<g fill="CornflowerBlue">
<rect height="0.9615385" width="50" x="50" y="17.307688"/>
<text fill="Black" font-family="Arial" font-size="5" x="51" y="16.269226">
0x002A80
</text>
<text fill="Black" font-family="Arial" font-size="5" x="51" y="22.307688">
0x002B00
</text>
</g>
<g fill="CornflowerBlue">
<rect height="0.9615385" width="50" x="50" y="16.346155"/>
<text fill="Black" font-family="Arial" font-size="5" x="51" y="15.3076935">
0x002B00
</text>
<text fill="Black" font-family="Arial" font-size="5" x="51" y="21.346155">
0x002B80
</text>
</g>
<g fill="CornflowerBlue">
<rect height="0.9615385" width="50" x="50" y="15.384615"/>
<text fill="Black" font-family="Arial" font-size="5" x="51" y="14.346153">
0x002B80
</text>
<text fill="Black" font-family="Arial" font-size="5" x="51" y="20.384615">
0x002C00
</text>
</g>
<g fill="CornflowerBlue">
<rect height="0.9615385" width="50" x="50" y="14.423075"/>
<text fill="Black" font-family="Arial" font-size="5" x="51" y="13.384613">
0x002C00
</text>
<text fill="Black" font-family="Arial" font-size="5" x="51" y="19.423075">
0x002C80
</text>
</g>
<g fill="CornflowerBlue">
<rect height="0.9615385" width="50" x="50" y="13.461542"/>
<text fill="Black" font-family="Arial" font-size="5" x="51" y="12.42308">
0x002C80
</text>
<text fill="Black" font-family="Arial" font-size="5" x="51" y="18.461542">
0x002D00
</text>
</g>
<g fill="CornflowerBlue">
<rect height="0.9615385" width="50" x="50" y="12.499994"/>
<text fill="Black" font-family="Arial" font-size="5" x="51" y="11.461533">
0x002D00
</text>
<text fill="Black" font-family="Arial" font-size="5" x="51" y="17.499994">
0x002D80
</text>
</g>
<g fill="CornflowerBlue">
<rect height="0.9615385" width="50" x="50" y="11.538462"/>
<text fill="Black" font-family="Arial" font-size="5" x="51" y="10.5">
0x002D80
</text>
<text fill="Black" font-family="Arial" font-size="5" x="51" y="16.538462">
0x002E00
</text>
</g>
<g fill="CornflowerBlue">
<rect height="0.9615385" width="50" x="50" y="10.576929"/>
<text fill="Black" font-family="Arial" font-size="5" x="51" y="9.538467">
0x002E00
</text>
<text fill="Black" font-family="Arial" font-size="5" x="51" y="15.576929">
0x002E80
</text>
</g>
<g fill="CornflowerBlue">
<rect height="0.9615385" width="50" x="50" y="9.615381"/>
<text fill="Black" font-family="Arial" font-size="5" x="51" y="8.57692">
0x002E80
</text>
<text fill="Black" font-family="Arial" font-size="5" x="51" y="14.615381">
0x002F00
</text>
</g>
<g fill="CornflowerBlue">
<rect height="0.9615385" width="50" x="50" y="8.653849"/>
<text fill="Black" font-family="Arial" font-size="5" x="51" y="7.615387">
0x002F00
</text>
<text fill="Black" font-family="Arial" font-size="5" x="51" y="13.653849">
0x002F80
</text>
</g>
<g fill="CornflowerBlue">
<rect height="0.9615385" width="50" x="50" y="7.6923084"/>
<text fill="Black" font-family="Arial" font-size="5" x="51" y="6.6538467">
0x002F80
</text>
<text fill="Black" font-family="Arial" font-size="5" x="51" y="12.692308">
0x003000
</text>
</g>
<g fill="CornflowerBlue">
<rect height="0.9615385" width="50" x="50" y="6.730768"/>
<text fill="Black" font-family="Arial" font-size="5" x="51" y="5.6923065">
0x003000
</text>
<text fill="Black" font-family="Arial" font-size="5" x="51" y="11.730768">
0x003080
</text>
</g>
<g fill="CornflowerBlue">
<rect height="0.9615385" width="50" x="50" y="5.7692356"/>
<text fill="Black" font-family="Arial" font-size="5" x="51" y="4.730774">
0x003080
</text>
<text fill="Black" font-family="Arial" font-size="5" x="51" y="10.769236">
0x003100
</text>
</g>
<g fill="CornflowerBlue">
<rect height="0.9615385" width="50" x="50" y="4.8076878"/>
<text fill="Black" font-family="Arial" font-size="5" x="51" y="3.769226">
0x003100
</text>
<text fill="Black" font-family="Arial" font-size="5" x="51" y="9.807688">
0x003180
</text>
</g>
<g fill="CornflowerBlue">
<rect height="0.9615385" width="50" x="50" y="3.846155"/>
<text fill="Black" font-family="Arial" font-size="5" x="51" y="2.8076935">
0x003180
</text>
<text fill="Black" font-family="Arial" font-size="5" x="51" y="8.846155">
0x003200
</text>
</g>
<g fill="CornflowerBlue">
<rect height="0.9615385" width="50" x="50" y="2.8846147"/>
<text fill="Black" font-family="Arial" font-size="5" x="51" y="1.8461533">
0x003200
</text>
<text fill="Black" font-family="Arial" font-size="5" x="51" y="7.884615">
0x003280
</text>
</g>
<g fill="CornflowerBlue">
<rect height="0.9615385" width="50" x="50" y="1.9230745"/>
<text fill="Black" font-family="Arial" font-size="5" x="51" y="0.88461304">
0x003280
</text>
<text fill="Black" font-family="Arial" font-size="5" x="51" y="6.9230747">
0x003300
</text>
</g>
<g fill="CornflowerBlue">
<rect height="0.9615385" width="50" x="50" y="0.96154195"/>
<text fill="Black" font-family="Arial" font-size="5" x="51" y="-0.076919556">
0x003300
</text>
<text fill="Black" font-family="Arial" font-size="5" x="51" y="5.961542">
0x003380
</text>
</g>
<g fill="CornflowerBlue">
<rect height="0.9615385" width="50" x="50" y="-0.00000590086"/>
<text fill="Black" font-family="Arial" font-size="5" x="51" y="-1.0384674">
0x003380
</text>
<text fill="Black" font-family="Arial" font-size="5" x="51" y="4.9999943">
0x003400
</text>
</g>
<g fill="Crimson">
<rect height="7.692308" width="50" x="100" y="92.30769"/>
<text fill="Black" font-family="Arial" font-size="5" x="101" y="98">
0x000000
</text>
<text fill="Black" font-family="Arial" font-size="5" x="101" y="97.30769">
0x000400
</text>
</g>
<g fill="Crimson">
<rect height="7.692308" width="50" x="100" y="84.61539"/>
<text fill="Black" font-family="Arial" font-size="5" x="101" y="90.30769">
0x000400
</text>
<text fill="Black" font-family="Arial" font-size="5" x="101" y="89.61539">
0x000800
</text>
</g>
<g fill="Crimson">
<rect height="7.692308" width="50" x="100" y="76.92308"/>
<text fill="Black" font-family="Arial" font-size="5" x="101" y="82.61539">
0x000800
</text>
<text fill="Black" font-family="Arial" font-size="5" x="101" y="81.92308">
0x000C00
</text>
</g>
<g fill="Crimson">
<rect height="7.692308" width="50" x="100" y="69.230774"/>
<text fill="Black" font-family="Arial" font-size="5" x="101" y="74.92308">
0x000C00
</text>
<text fill="Black" font-family="Arial" font-size="5" x="101" y="74.230774">
0x001000
</text>
</g>
<g fill="Crimson">
<rect height="7.692308" width="50" x="100" y="61.53846"/>
<text fill="Black" font-family="Arial" font-size="5" x="101" y="67.23077">
0x001000
</text>
<text fill="Black" font-family="Arial" font-size="5" x="101" y="66.53846">
0x001400
</text>
</g>
<g fill="Crimson">
<rect height="7.692308" width="50" x="100" y="38.461536"/>
<text fill="Black" font-family="Arial" font-size="5" x="101" y="44.153843">
0x001C00
</text>
<text fill="Black" font-family="Arial" font-size="5" x="101" y="43.461536">
0x002000
</text>
</g>
<g fill="Crimson">
<rect height="7.692308" width="50" x="100" y="30.769228"/>
<text fill="Black" font-family="Arial" font-size="5" x="101" y="36.461536">
0x002000
</text>
<text fill="Black" font-family="Arial" font-size="5" x="101" y="35.769226">
0x002400
</text>
</g>
<g fill="Crimson">
<rect height="7.692308" width="50" x="100" y="23.076918"/>
<text fill="Black" font-family="Arial" font-size="5" x="101" y="28.769226">
0x002400
</text>
<text fill="Black" font-family="Arial" font-size="5" x="101" y="28.076918">
0x002800
</text>
</g>
<g fill="Crimson">
<rect height="7.692308" width="50" x="100" y="15.384611"/>
<text fill="Black" font-family="Arial" font-size="5" x="101" y="21.07692">
0x002800
</text>
<text fill="Black" font-family="Arial" font-size="5" x="101" y="20.384611">
0x002C00
</text>
</g>
<g fill="Crimson">
<rect height="7.692308" width="50" x="100" y="7.692305"/>
<text fill="Black" font-family="Arial" font-size="5" x="101" y="13.384613">
0x002C00
</text>
<text fill="Black" font-family="Arial" font-size="5" x="101" y="12.692305">
0x003000
</text>
</g>
<g fill="Crimson">
<rect height="7.692308" width="50" x="100" y="-0.0000014305115"/>
<text fill="Black" font-family="Arial" font-size="5" x="101" y="5.6923065">
0x003000
</text>
<text fill="Black" font-family="Arial" font-size="5" x="101" y="4.9999986">
0x003400
</text>
</g>
<g fill="MediumSeaGreen">
<rect height="37.740387" width="50" x="150" y="62.259613"/>
<text fill="Black" font-family="Arial" font-size="5" x="151" y="98">
0x000000
</text>
<text fill="Black" font-family="Arial" font-size="5" x="151" y="67.25961">
0x0013A0
</text>
</g>
<g fill="MediumSeaGreen">
<rect height="37.740387" width="50" x="150" y="3.215145"/>
<text fill="Black" font-family="Arial" font-size="5" x="151" y="38.955532">
0x001EB4
</text>
<text fill="Black" font-family="Arial" font-size="5" x="151" y="8.215145">
0x003254
</text>
</g>
<g fill="SandyBrown">
<rect height="0.72115386" width="50" x="150" y="61.53846"/>
<text fill="Black" font-family="Arial" font-size="5" x="151" y="60.259613">
0x0013A0
</text>
<text fill="Black" font-family="Arial" font-size="5" x="151" y="66.53846">
0x001400
</text>
</g>
<g fill="SandyBrown">
<rect height="5.1983175" width="50" x="150" y="40.955524"/>
<text fill="Black" font-family="Arial" font-size="5" x="151" y="44.153843">
0x001C00
</text>
<text fill="Black" font-family="Arial" font-size="5" x="151" y="45.955524">
0x001EB4
</text>
</g>
<g fill="SandyBrown">
<rect height="3.2151442" width="50" x="150" y="0.0000047683716"/>
<text fill="Black" font-family="Arial" font-size="5" x="151" y="1.2151489">
0x003254
</text>
<text fill="Black" font-family="Arial" font-size="5" x="151" y="5.000005">
0x003400
</text>
</g>
</g>
</svg>